<svg width="58" height="58" viewBox="0 0 58 58" fill="none" xmlns="http://www.w3.org/2000/svg">
<g opacity="0.75" clip-path="url(#clip0_259_267)">
<path d="M29.5 48.8314H21.7673C24.3449 52.9556 28.6408 53.9865 29.5 53.9865C30.3592 53.9865 34.6551 52.9555 37.2326 48.8314H29.5Z" fill="#464655"/>
<path d="M21.5523 14.6672C21.5523 14.6672 14.042 4.44355 10.6387 4.92179C5.97357 5.57749 2.23637 13.0437 2.95384 18.1486C3.43208 21.5519 9.13489 25.0886 15.2102 25.1025L21.5523 14.6672Z" fill="#AFACA9"/>
<path d="M38.1592 14.3563C38.1592 14.3563 45.513 4.34567 48.8453 4.81403C53.4134 5.45609 57.0726 12.7668 56.3702 17.7652C55.9018 21.0976 50.3178 24.5606 44.3691 24.5742L38.1592 14.3563Z" fill="#AFACA9"/>
<path d="M35.5144 14.8935C32.5628 14.3351 30.6636 12.7276 29.5001 9.32776C28.4977 12.9603 26.8533 13.623 23.9153 14.2491C17.364 15.6452 9.73877 22.6802 9.73877 30.4662C9.73877 40.7765 13.9273 47.0056 19.9416 50.7645L29.5 54.8844L39.8102 50.4423C45.019 46.7371 49.2613 40.7765 49.2613 30.4662C49.2613 22.6802 43.4619 16.3971 35.5144 14.8935Z" fill="#E5DDD1"/>
<path d="M24.6659 36.264C26.3267 34.6032 25.905 31.4889 23.7241 29.308C21.5432 27.1271 18.4289 26.7054 16.7681 28.3662C15.1073 30.027 15.529 33.1413 17.7099 35.3222C19.8908 37.5031 23.0051 37.9248 24.6659 36.264Z" fill="#D2C1AE"/>
<path d="M34.3344 36.2651C35.9952 37.9259 39.1095 37.5043 41.2904 35.3233C43.4713 33.1424 43.893 30.0281 42.2322 28.3673C40.5714 26.7066 37.4571 27.1282 35.2762 29.3091C33.0953 31.4901 32.6736 34.6044 34.3344 36.2651Z" fill="#D2C1AE"/>
<path d="M29.5002 32.3746C37.5658 32.3746 41.1504 43.1373 39.3581 46.733C37.0947 51.2737 32.5808 49.4682 29.5002 49.4682C26.4196 49.4682 21.9058 51.2736 19.6423 46.733C17.8499 43.1373 21.4345 32.3746 29.5002 32.3746Z" fill="#B3ACA9"/>
<path d="M20.0494 33.3667C21.2357 33.3667 22.1974 32.405 22.1974 31.2187C22.1974 30.0324 21.2357 29.0707 20.0494 29.0707C18.8631 29.0707 17.9014 30.0324 17.9014 31.2187C17.9014 32.405 18.8631 33.3667 20.0494 33.3667Z" fill="black"/>
<path d="M38.9515 33.3667C40.1378 33.3667 41.0995 32.405 41.0995 31.2187C41.0995 30.0324 40.1378 29.0707 38.9515 29.0707C37.7652 29.0707 36.8035 30.0324 36.8035 31.2187C36.8035 32.405 37.7652 33.3667 38.9515 33.3667Z" fill="black"/>
<path opacity="0.87" d="M34.6624 42.4558C34.6617 44.3458 31.8665 46.275 29.5005 46.2742V46.2737C27.1347 46.2727 24.3377 44.3419 24.3384 42.452C24.3391 40.562 26.2755 39.4002 28.6414 39.4011L30.362 39.4018C32.7278 39.4026 34.663 40.5659 34.6624 42.4558Z" fill="#464655"/>
<path d="M39.3217 46.363C38.8904 46.1653 38.3804 46.3548 38.1827 46.7861C36.9432 49.4908 34.8011 49.4521 31.675 49.084C31.2217 49.0306 30.7835 48.9795 30.3592 48.9462V47.0645C32.8613 46.6808 35.5205 44.7139 35.5214 42.4559C35.5222 40.1894 33.3523 38.5435 30.3621 38.5424L28.6385 38.5417C25.6497 38.5417 23.4799 40.1861 23.479 42.4515C23.4783 44.7097 26.1375 46.6783 28.6409 47.0636V48.9462C28.2166 48.9795 27.7785 49.0306 27.3251 49.084C24.1988 49.4521 22.0571 49.4907 20.8174 46.7861C20.6197 46.3548 20.1098 46.1652 19.6785 46.363C19.247 46.5607 19.0576 47.0706 19.2554 47.502C21.1087 51.546 24.8178 51.1095 27.526 50.7907C28.2408 50.7065 28.916 50.6271 29.5001 50.6271C30.0843 50.6271 30.7594 50.7066 31.4743 50.7907C32.2601 50.8831 33.1301 50.9856 34.0147 50.9856C36.1787 50.9856 38.4294 50.3725 39.7449 47.502C39.9425 47.0705 39.753 46.5607 39.3217 46.363ZM25.1973 42.4522C25.1978 41.0132 26.9288 40.2603 28.6408 40.2603L30.3613 40.2609C32.0719 40.2616 33.8035 41.0155 33.8029 42.4555C33.8024 43.777 31.4524 45.4001 29.5284 45.4149C29.5192 45.4146 29.5099 45.4145 29.5006 45.4145C27.5697 45.4136 25.1968 43.7803 25.1973 42.4522Z" fill="black"/>
<path d="M56.4029 12.1995C54.8862 7.24697 50.8466 2.99016 47.9298 3.26935C45.6094 3.49107 42.4885 6.9305 38.3889 13.7843C38.3701 13.8158 38.3535 13.8483 38.339 13.8813C38.0779 14.2652 37.7613 14.4044 37.1811 14.4044C36.4661 14.4044 35.1356 13.6552 34.6088 11.645C34.4884 11.186 34.019 10.9117 33.5598 11.0317C33.1008 11.1521 32.8262 11.6216 32.9465 12.0806C32.9909 12.2497 33.0404 12.4133 33.0945 12.5722C31.8429 11.9895 30.6226 10.5059 30.3812 9.17455C30.3804 9.17014 30.379 9.16606 30.3782 9.16176C30.3746 9.14382 30.3704 9.12631 30.3658 9.1088C30.3629 9.09795 30.3601 9.08721 30.3569 9.07658C30.3522 9.06132 30.3469 9.04639 30.3413 9.03146C30.3368 9.019 30.3323 9.00664 30.3271 8.99461C30.322 8.98237 30.3162 8.97034 30.3105 8.95831C30.3039 8.94456 30.2974 8.93091 30.2902 8.91748C30.2846 8.90728 30.2786 8.8974 30.2726 8.88751C30.2642 8.87366 30.2559 8.85969 30.2469 8.84637C30.2403 8.83681 30.2334 8.82757 30.2265 8.81812C30.2171 8.80555 30.2079 8.79288 30.1979 8.78084C30.1895 8.77064 30.1805 8.76097 30.1717 8.7513C30.1625 8.7411 30.1533 8.73079 30.1435 8.72101C30.1326 8.71005 30.1211 8.69985 30.1097 8.68954C30.101 8.6818 30.0926 8.67385 30.0837 8.66655C30.0706 8.6557 30.057 8.6456 30.0433 8.6355C30.0349 8.62938 30.0268 8.62304 30.0182 8.61735C30.004 8.60779 29.9893 8.59887 29.9746 8.59017C29.9653 8.58469 29.9562 8.579 29.9468 8.57384C29.933 8.56643 29.9187 8.55955 29.9044 8.55279C29.8928 8.5472 29.8813 8.54162 29.8694 8.53667C29.8573 8.53152 29.8447 8.5269 29.8321 8.52228C29.8172 8.5168 29.8022 8.51143 29.7869 8.5067C29.7766 8.50359 29.7661 8.5008 29.7555 8.49811C29.7376 8.49338 29.7197 8.48898 29.7013 8.48543C29.6972 8.48457 29.6932 8.48329 29.6892 8.48264C29.6835 8.48157 29.6778 8.48124 29.6721 8.48039C29.6538 8.47738 29.6354 8.47491 29.617 8.47319C29.6055 8.47211 29.594 8.47136 29.5825 8.47072C29.5667 8.46986 29.5508 8.46932 29.5349 8.46943C29.5203 8.46943 29.5058 8.46986 29.4914 8.47061C29.4786 8.47136 29.4658 8.47222 29.4529 8.4734C29.4356 8.47512 29.4185 8.47748 29.4014 8.48017C29.395 8.48124 29.3888 8.48146 29.3825 8.48264C29.378 8.48339 29.3736 8.4849 29.369 8.48576C29.3517 8.48919 29.3348 8.49328 29.3178 8.49768C29.3063 8.50069 29.2949 8.5037 29.2836 8.50713C29.2692 8.51154 29.2552 8.51648 29.2411 8.52174C29.2277 8.52658 29.2144 8.53141 29.2014 8.53689C29.1902 8.54162 29.1793 8.54688 29.1684 8.55214C29.1535 8.55913 29.1387 8.56622 29.1243 8.57406C29.1153 8.579 29.1066 8.58448 29.0978 8.58963C29.0827 8.59866 29.0676 8.60768 29.0531 8.61756C29.0447 8.62326 29.0368 8.62938 29.0286 8.63539C29.0148 8.64549 29.0009 8.6557 28.9877 8.66665C28.9788 8.67407 28.9703 8.68202 28.9617 8.68975C28.9503 8.70006 28.9388 8.71027 28.928 8.72122C28.9181 8.73111 28.9087 8.74153 28.8994 8.75195C28.8907 8.76151 28.8819 8.77096 28.8736 8.78095C28.8634 8.7932 28.8539 8.80609 28.8445 8.81898C28.8377 8.828 28.831 8.83692 28.8245 8.84637C28.8153 8.86001 28.8068 8.87419 28.7983 8.88837C28.7925 8.89815 28.7866 8.90771 28.7812 8.91748C28.7739 8.93102 28.7672 8.94509 28.7605 8.95906C28.7549 8.97087 28.7492 8.98258 28.7442 8.99461C28.739 9.00686 28.7344 9.01943 28.7298 9.032C28.7243 9.04693 28.719 9.06164 28.7144 9.07668C28.7112 9.08753 28.7083 9.09828 28.7055 9.10923C28.7009 9.12674 28.6967 9.14425 28.6931 9.16208C28.6923 9.16649 28.6909 9.17057 28.6901 9.17487C28.4432 10.5367 27.1722 12.0579 25.891 12.6111C25.9504 12.4402 26.005 12.2639 26.0529 12.081C26.1732 11.6219 25.8986 11.1524 25.4397 11.032C24.9803 10.9116 24.511 11.1863 24.3907 11.6454C23.8639 13.6555 22.5334 14.4047 21.8182 14.4047C21.2385 14.4047 20.9219 14.2657 20.6609 13.8823C20.6464 13.8489 20.6295 13.8164 20.6106 13.7847C16.5109 6.93082 13.3901 3.49128 11.0696 3.26967C8.15397 2.99027 4.11373 7.24686 2.59704 12.1995C1.02116 17.3454 2.59908 21.6497 6.92635 24.0086C7.04838 24.0751 7.18083 24.1331 7.33155 24.1858C8.5105 24.5979 9.46119 25.1489 9.15224 27.5884C9.14977 27.6019 9.14687 27.6151 9.1444 27.6287C9.13742 27.6667 9.13387 27.7046 9.13194 27.7423C9.11905 27.832 9.10487 27.9237 9.08865 28.0184C8.11712 33.7016 9.41328 39.8572 12.645 44.9066C14.0885 47.162 16.6253 50.2587 20.5123 52.2023C21.4163 52.6542 22.1913 53.1027 22.9408 53.5364C24.9876 54.7209 26.7552 55.7438 29.5 55.7438C32.2879 55.7438 34.0305 54.7269 36.0481 53.5494C36.7985 53.1115 37.5746 52.6587 38.4876 52.2022C42.3747 50.2586 44.9115 47.1619 46.355 44.9065C49.5865 39.857 50.8828 33.7015 49.9113 28.0183C49.8953 27.9247 49.8812 27.8339 49.8685 27.7453C49.8666 27.7066 49.8631 27.6678 49.8559 27.6285C49.8531 27.6133 49.8499 27.5987 49.847 27.5834C49.5401 25.1481 50.4903 24.5976 51.6684 24.1858C51.8189 24.1331 51.9514 24.0751 52.0736 24.0085C56.4009 21.6496 57.9789 17.3454 56.4029 12.1995ZM51.2513 22.4997C51.2124 22.5209 51.1619 22.5423 51.1013 22.5636C50.2569 22.8589 49.3721 23.3018 48.7789 24.159C48.0086 22.4503 47.0375 21.1641 46.1961 20.0506C44.7311 18.1116 44.1173 17.1902 44.9219 15.6642C45.1433 15.2445 44.9824 14.7248 44.5627 14.5034C44.143 14.2821 43.6233 14.4429 43.4019 14.8627C42.0542 17.419 43.4001 19.2003 44.8251 21.0863C46.0391 22.6931 47.5472 24.6903 48.1528 27.8726C48.1712 28.0142 48.192 28.1582 48.2176 28.3076C49.1179 33.5743 47.9116 39.2867 44.9078 43.9801C43.5808 46.0537 41.2562 48.8966 37.7194 50.665C36.7567 51.1463 35.9202 51.6344 35.1821 52.0651C33.2322 53.203 31.8234 54.0251 29.5002 54.0251C27.2169 54.0251 25.7844 53.1961 23.8018 52.0488C23.066 51.6229 22.2318 51.1403 21.281 50.665C17.744 48.8965 15.4196 46.0534 14.0926 43.98C11.0888 39.2867 9.8825 33.5742 10.7828 28.3075C10.808 28.1595 10.8287 28.0169 10.847 27.8766C11.4521 24.6921 12.9612 22.6937 14.1756 21.0862C15.6007 19.2002 16.9466 17.4189 15.5987 14.8626C15.3773 14.4428 14.858 14.2819 14.4379 14.5033C14.0182 14.7247 13.8573 15.2442 14.0787 15.6641C14.8832 17.19 14.2695 18.1115 12.8045 20.0505C11.9631 21.164 10.9921 22.4502 10.2216 24.1593C9.62834 23.3018 8.7435 22.8589 7.89906 22.5636C7.83826 22.5423 7.78766 22.5209 7.74899 22.4997C2.89588 19.8541 3.46758 15.2259 4.24027 12.7026C5.5564 8.40476 9.06136 4.80462 10.9068 4.97983C11.6798 5.05373 14.0182 6.13612 19.0655 14.5479C19.0819 14.5885 19.1015 14.6281 19.1244 14.6664C19.7106 15.6463 20.5918 16.1227 21.8186 16.1227C22.9032 16.1227 24.1691 15.4666 25.0803 14.1944C25.2393 14.3532 25.4562 14.4476 25.6865 14.4476C25.7576 14.4476 25.8298 14.4386 25.9019 14.4202C27.28 14.0644 28.6634 12.9147 29.5361 11.5424C30.4087 12.9147 31.792 14.0644 33.1703 14.4202C33.2423 14.4388 33.3145 14.4476 33.3856 14.4476C33.5961 14.4476 33.7945 14.3676 33.9488 14.2331C34.8578 15.4793 36.1081 16.1226 37.1815 16.1226C38.4083 16.1226 39.2897 15.6462 39.8756 14.6663C39.8984 14.6282 39.918 14.5889 39.9343 14.5488C44.9816 6.13676 47.3204 5.05352 48.0935 4.97983C49.9354 4.80387 53.4439 8.40465 54.76 12.7026C55.5326 15.2259 56.1044 19.8541 51.2513 22.4997Z" fill="black"/>
</g>
<line opacity="0.9" x1="2.47487" y1="2" x2="56" y2="55.5251" stroke="black" stroke-opacity="0.86" stroke-width="3.5" stroke-linecap="round"/>
<defs>
<clipPath id="clip0_259_267">
<rect width="55" height="55" fill="white" transform="translate(2 2)"/>
</clipPath>
</defs>
</svg>
