<svg width="55" height="55" viewBox="0 0 55 55" fill="none" xmlns="http://www.w3.org/2000/svg">
<g clip-path="url(#clip0_259_227)">
<path d="M27.5 46.8314H19.7673C22.3449 50.9556 26.6408 51.9865 27.5 51.9865C28.3592 51.9865 32.6551 50.9555 35.2326 46.8314H27.5Z" fill="#464655"/>
<path d="M19.5523 12.6672C19.5523 12.6672 12.042 2.44355 8.63869 2.92179C3.97357 3.57749 0.236367 11.0437 0.953837 16.1486C1.43208 19.5519 7.13489 23.0886 13.2102 23.1025L19.5523 12.6672Z" fill="#AA825A"/>
<path d="M36.1592 12.3563C36.1592 12.3563 43.513 2.34567 46.8453 2.81403C51.4134 3.45609 55.0726 10.7668 54.3702 15.7652C53.9018 19.0976 48.3178 22.5606 42.3691 22.5742L36.1592 12.3563Z" fill="#AA825A"/>
<path d="M33.5144 12.8935C30.5628 12.3351 28.6636 10.7276 27.5001 7.32776C26.4977 10.9603 24.8533 11.623 21.9153 12.2491C15.364 13.6452 7.73877 20.6802 7.73877 28.4662C7.73877 38.7765 11.9273 45.0056 17.9416 48.7645L27.5 52.8844L37.8102 48.4423C43.019 44.7371 47.2613 38.7765 47.2613 28.4662C47.2613 20.6802 41.4619 14.3971 33.5144 12.8935Z" fill="#D7A055"/>
<path d="M22.6659 34.264C24.3267 32.6032 23.905 29.4889 21.7241 27.308C19.5432 25.1271 16.4289 24.7054 14.7681 26.3662C13.1073 28.027 13.529 31.1413 15.7099 33.3222C17.8908 35.5031 21.0051 35.9248 22.6659 34.264Z" fill="#B08758"/>
<path d="M32.3344 34.2651C33.9952 35.9259 37.1095 35.5043 39.2904 33.3233C41.4713 31.1424 41.893 28.0281 40.2322 26.3673C38.5714 24.7066 35.4571 25.1282 33.2762 27.3091C31.0953 29.4901 30.6736 32.6044 32.3344 34.2651Z" fill="#B08758"/>
<path d="M27.5002 30.3746C35.5658 30.3746 39.1504 41.1373 37.3581 44.733C35.0947 49.2737 30.5808 47.4682 27.5002 47.4682C24.4196 47.4682 19.9058 49.2736 17.6423 44.733C15.8499 41.1373 19.4345 30.3746 27.5002 30.3746Z" fill="#7C665D"/>
<path d="M18.0494 31.3667C19.2357 31.3667 20.1974 30.405 20.1974 29.2187C20.1974 28.0324 19.2357 27.0707 18.0494 27.0707C16.8631 27.0707 15.9014 28.0324 15.9014 29.2187C15.9014 30.405 16.8631 31.3667 18.0494 31.3667Z" fill="black"/>
<path d="M36.9515 31.3667C38.1378 31.3667 39.0995 30.405 39.0995 29.2187C39.0995 28.0324 38.1378 27.0707 36.9515 27.0707C35.7652 27.0707 34.8035 28.0324 34.8035 29.2187C34.8035 30.405 35.7652 31.3667 36.9515 31.3667Z" fill="black"/>
<path d="M32.6624 40.4558C32.6617 42.3458 29.8665 44.275 27.5005 44.2742V44.2737C25.1347 44.2727 22.3377 42.3419 22.3384 40.452C22.3391 38.562 24.2755 37.4002 26.6414 37.4011L28.362 37.4018C30.7278 37.4026 32.663 38.5659 32.6624 40.4558Z" fill="#464655"/>
<path d="M37.3217 44.363C36.8904 44.1653 36.3804 44.3548 36.1827 44.7861C34.9432 47.4908 32.8011 47.4521 29.675 47.084C29.2217 47.0306 28.7835 46.9795 28.3592 46.9462V45.0645C30.8613 44.6808 33.5205 42.7139 33.5214 40.4559C33.5222 38.1894 31.3523 36.5435 28.3621 36.5424L26.6385 36.5417C23.6497 36.5417 21.4799 38.1861 21.479 40.4515C21.4783 42.7097 24.1375 44.6783 26.6409 45.0636V46.9462C26.2166 46.9795 25.7785 47.0306 25.3251 47.084C22.1988 47.4521 20.0571 47.4907 18.8174 44.7861C18.6197 44.3548 18.1098 44.1652 17.6785 44.363C17.247 44.5607 17.0576 45.0706 17.2554 45.502C19.1087 49.546 22.8178 49.1095 25.526 48.7907C26.2408 48.7065 26.916 48.6271 27.5001 48.6271C28.0843 48.6271 28.7594 48.7066 29.4743 48.7907C30.2601 48.8831 31.1301 48.9856 32.0147 48.9856C34.1787 48.9856 36.4294 48.3725 37.7449 45.502C37.9425 45.0705 37.753 44.5607 37.3217 44.363ZM23.1973 40.4522C23.1978 39.0132 24.9288 38.2603 26.6408 38.2603L28.3613 38.2609C30.0719 38.2616 31.8035 39.0155 31.8029 40.4555C31.8024 41.777 29.4524 43.4001 27.5284 43.4149C27.5192 43.4146 27.5099 43.4145 27.5006 43.4145C25.5697 43.4136 23.1968 41.7803 23.1973 40.4522Z" fill="black"/>
<path d="M54.4029 10.1995C52.8862 5.24691 48.8466 0.990099 45.9298 1.26929C43.6094 1.49101 40.4885 4.93044 36.3889 11.7843C36.3701 11.8158 36.3535 11.8482 36.339 11.8813C36.0779 12.2651 35.7613 12.4043 35.1811 12.4043C34.4661 12.4043 33.1356 11.6552 32.6088 9.64497C32.4884 9.18596 32.019 8.9116 31.5598 9.03159C31.1008 9.15201 30.8262 9.62155 30.9465 10.0806C30.9909 10.2497 31.0404 10.4133 31.0945 10.5721C29.8429 9.98947 28.6226 8.50587 28.3812 7.17448C28.3804 7.17008 28.379 7.166 28.3782 7.1617C28.3746 7.14376 28.3704 7.12625 28.3658 7.10874C28.3629 7.09789 28.3601 7.08715 28.3569 7.07652C28.3522 7.06126 28.3469 7.04633 28.3413 7.0314C28.3368 7.01894 28.3323 7.00658 28.3271 6.99455C28.322 6.98231 28.3162 6.97028 28.3105 6.95824C28.3039 6.94449 28.2974 6.93085 28.2902 6.91742C28.2846 6.90722 28.2786 6.89734 28.2726 6.88745C28.2642 6.8736 28.2559 6.85963 28.2469 6.84631C28.2403 6.83675 28.2334 6.82751 28.2265 6.81806C28.2171 6.80549 28.2079 6.79281 28.1979 6.78078C28.1895 6.77058 28.1805 6.76091 28.1717 6.75124C28.1625 6.74104 28.1533 6.73072 28.1435 6.72095C28.1326 6.70999 28.1211 6.69979 28.1097 6.68947C28.101 6.68174 28.0926 6.67379 28.0837 6.66649C28.0706 6.65564 28.057 6.64554 28.0433 6.63544C28.0349 6.62932 28.0268 6.62298 28.0182 6.61729C28.004 6.60773 27.9893 6.59881 27.9746 6.59011C27.9653 6.58463 27.9562 6.57894 27.9468 6.57378C27.933 6.56637 27.9187 6.55949 27.9044 6.55273C27.8928 6.54714 27.8813 6.54155 27.8694 6.53661C27.8573 6.53146 27.8447 6.52684 27.8321 6.52222C27.8172 6.51674 27.8022 6.51137 27.7869 6.50664C27.7766 6.50353 27.7661 6.50073 27.7555 6.49805C27.7376 6.49332 27.7197 6.48892 27.7013 6.48537C27.6972 6.48451 27.6932 6.48322 27.6892 6.48258C27.6835 6.48151 27.6778 6.48118 27.6721 6.48032C27.6538 6.47732 27.6354 6.47485 27.617 6.47313C27.6055 6.47205 27.594 6.4713 27.5825 6.47066C27.5667 6.4698 27.5508 6.46926 27.5349 6.46937C27.5203 6.46937 27.5058 6.4698 27.4914 6.47055C27.4786 6.4713 27.4658 6.47216 27.4529 6.47334C27.4356 6.47506 27.4185 6.47742 27.4014 6.48011C27.395 6.48118 27.3888 6.4814 27.3825 6.48258C27.378 6.48333 27.3736 6.48484 27.369 6.48569C27.3517 6.48913 27.3348 6.49321 27.3178 6.49762C27.3063 6.50063 27.2949 6.50363 27.2836 6.50707C27.2692 6.51148 27.2552 6.51642 27.2411 6.52168C27.2277 6.52652 27.2144 6.53135 27.2014 6.53683C27.1902 6.54155 27.1793 6.54682 27.1684 6.55208C27.1535 6.55906 27.1387 6.56615 27.1243 6.574C27.1153 6.57894 27.1066 6.58442 27.0978 6.58957C27.0827 6.5986 27.0676 6.60762 27.0531 6.6175C27.0447 6.6232 27.0368 6.62932 27.0286 6.63533C27.0148 6.64543 27.0009 6.65564 26.9877 6.66659C26.9788 6.67401 26.9703 6.68195 26.9617 6.68969C26.9503 6.7 26.9388 6.71021 26.928 6.72116C26.9181 6.73105 26.9087 6.74147 26.8994 6.75189C26.8907 6.76145 26.8819 6.7709 26.8736 6.78089C26.8634 6.79314 26.8539 6.80603 26.8445 6.81892C26.8377 6.82794 26.831 6.83686 26.8245 6.84631C26.8153 6.85995 26.8068 6.87413 26.7983 6.88831C26.7925 6.89809 26.7866 6.90765 26.7812 6.91742C26.7739 6.93096 26.7672 6.94503 26.7605 6.959C26.7549 6.97081 26.7492 6.98252 26.7442 6.99455C26.739 7.0068 26.7344 7.01937 26.7298 7.03194C26.7243 7.04687 26.719 7.06158 26.7144 7.07662C26.7112 7.08747 26.7083 7.09821 26.7055 7.10917C26.7009 7.12668 26.6967 7.14419 26.6931 7.16202C26.6923 7.16643 26.6909 7.17051 26.6901 7.17481C26.4432 8.53659 25.1722 10.0578 23.891 10.611C23.9504 10.4401 24.005 10.2638 24.0529 10.0809C24.1732 9.62188 23.8986 9.15234 23.4397 9.03192C22.9803 8.9115 22.511 9.18628 22.3907 9.64529C21.8639 11.6555 20.5334 12.4046 19.8182 12.4046C19.2385 12.4046 18.9219 12.2656 18.6609 11.8822C18.6464 11.8488 18.6295 11.8163 18.6106 11.7846C14.5109 4.93076 11.3901 1.49122 9.06961 1.26961C6.15397 0.990207 2.11373 5.2468 0.597036 10.1995C-0.978843 15.3453 0.599077 19.6496 4.92635 22.0086C5.04838 22.0751 5.18083 22.1331 5.33155 22.1857C6.5105 22.5978 7.46119 23.1489 7.15224 25.5883C7.14977 25.6018 7.14687 25.6151 7.1444 25.6286C7.13742 25.6666 7.13387 25.7045 7.13194 25.7422C7.11905 25.8319 7.10487 25.9237 7.08865 26.0183C6.11712 31.7016 7.41328 37.8572 10.645 42.9065C12.0885 45.162 14.6253 48.2586 18.5123 50.2022C19.4163 50.6541 20.1913 51.1026 20.9408 51.5364C22.9876 52.7208 24.7552 53.7437 27.5 53.7437C30.2879 53.7437 32.0305 52.7268 34.0481 51.5494C34.7985 51.1114 35.5746 50.6586 36.4876 50.2021C40.3747 48.2585 42.9115 45.1619 44.355 42.9064C47.5865 37.857 48.8828 31.7015 47.9113 26.0182C47.8953 25.9246 47.8812 25.8339 47.8685 25.7453C47.8666 25.7066 47.8631 25.6677 47.8559 25.6285C47.8531 25.6132 47.8499 25.5986 47.847 25.5834C47.5401 23.148 48.4903 22.5976 49.6684 22.1857C49.8189 22.1331 49.9514 22.0751 50.0736 22.0085C54.4009 19.6495 55.9789 15.3453 54.4029 10.1995ZM49.2513 20.4996C49.2124 20.5208 49.1619 20.5423 49.1013 20.5635C48.2569 20.8588 47.3721 21.3017 46.7789 22.159C46.0086 20.4502 45.0375 19.1641 44.1961 18.0505C42.7311 16.1116 42.1173 15.1901 42.9219 13.6642C43.1433 13.2445 42.9824 12.7248 42.5627 12.5034C42.143 12.2821 41.6233 12.4429 41.4019 12.8627C40.0542 15.4189 41.4001 17.2003 42.8251 19.0863C44.0391 20.693 45.5472 22.6903 46.1528 25.8726C46.1712 26.0141 46.192 26.1582 46.2176 26.3075C47.1179 31.5743 45.9116 37.2867 42.9078 41.98C41.5808 44.0536 39.2562 46.8965 35.7194 48.6649C34.7567 49.1463 33.9202 49.6344 33.1821 50.065C31.2322 51.203 29.8234 52.0251 27.5002 52.0251C25.2169 52.0251 23.7844 51.1961 21.8018 50.0487C21.066 49.6229 20.2318 49.1402 19.281 48.6649C15.744 46.8964 13.4196 44.0534 12.0926 41.9799C9.08884 37.2867 7.8825 31.5742 8.7828 26.3074C8.80804 26.1595 8.82867 26.0168 8.84704 25.8765C9.45214 22.692 10.9612 20.6936 12.1756 19.0862C13.6007 17.2002 14.9466 15.4188 13.5987 12.8626C13.3773 12.4428 12.858 12.2819 12.4379 12.5033C12.0182 12.7246 11.8573 13.2441 12.0787 13.6641C12.8832 15.19 12.2695 16.1114 10.8045 18.0504C9.96315 19.1639 8.99206 20.4501 8.22163 22.1592C7.62834 21.3017 6.7435 20.8588 5.89906 20.5635C5.83826 20.5423 5.78766 20.5208 5.74899 20.4996C0.895884 17.854 1.46758 13.2259 2.24027 10.7025C3.5564 6.4047 7.06136 2.80456 8.90676 2.97977C9.67977 3.05367 12.0182 4.13606 17.0655 12.5478C17.0819 12.5884 17.1015 12.6281 17.1244 12.6663C17.7106 13.6462 18.5918 14.1226 19.8186 14.1226C20.9032 14.1226 22.1691 13.4665 23.0803 12.1943C23.2393 12.3532 23.4562 12.4475 23.6865 12.4475C23.7576 12.4475 23.8298 12.4386 23.9019 12.4201C25.28 12.0643 26.6634 10.9146 27.5361 9.54238C28.4087 10.9146 29.792 12.0643 31.1703 12.4201C31.2423 12.4387 31.3145 12.4475 31.3856 12.4475C31.5961 12.4475 31.7945 12.3676 31.9488 12.2331C32.8578 13.4793 34.1081 14.1225 35.1815 14.1225C36.4083 14.1225 37.2897 13.6461 37.8756 12.6662C37.8984 12.6282 37.918 12.5889 37.9343 12.5487C42.9816 4.1367 45.3204 3.05346 46.0935 2.97977C47.9354 2.80381 51.4439 6.40459 52.76 10.7025C53.5326 13.2259 54.1044 17.854 49.2513 20.4996Z" fill="black"/>
</g>
<defs>
<clipPath id="clip0_259_227">
<rect width="55" height="55" fill="white"/>
</clipPath>
</defs>
</svg>
