<svg width="25" height="30" viewBox="0 0 25 30" fill="none" xmlns="http://www.w3.org/2000/svg">
<path d="M8 28V21.2816C8 20.4716 8.4143 19.7055 9.1259 19.1993L11.75 17.3333M11.75 17.3333L9.5 8.66667ZM11.75 17.3333L14 16ZM9.5 8.66667L12.5 8ZM9.5 8.66667L6.4361 13.0241C5.99825 13.6469 5.2907 14.0816 4.48055 14.2257L2 14.6667M14 16L12.5 8ZM14 16L14.8998 20.3992C15.2199 21.964 16.9998 22.9333 18.7135 22.4764L23 21.3333M12.5 8L16.8416 9.92961C17.858 10.3813 18.5 11.3047 18.5 12.3148V14.6667M7.25 3.33333C7.25 4.06971 7.92155 4.66667 8.75 4.66667C9.57845 4.66667 10.25 4.06971 10.25 3.33333C10.25 2.59696 9.57845 2 8.75 2C7.92155 2 7.25 2.59696 7.25 3.33333Z" fill="#D9D9D9"/>
<path d="M8 28V21.2816C8 20.4716 8.4143 19.7055 9.1259 19.1993L11.75 17.3333M11.75 17.3333L9.5 8.66667M11.75 17.3333L14 16M9.5 8.66667L12.5 8M9.5 8.66667L6.4361 13.0241C5.99825 13.6469 5.2907 14.0816 4.48055 14.2257L2 14.6667M14 16L12.5 8M14 16L14.8998 20.3992C15.2199 21.964 16.9998 22.9333 18.7135 22.4764L23 21.3333M12.5 8L16.8416 9.92961C17.858 10.3813 18.5 11.3047 18.5 12.3148V14.6667M7.25 3.33333C7.25 4.06971 7.92155 4.66667 8.75 4.66667C9.57845 4.66667 10.25 4.06971 10.25 3.33333C10.25 2.59696 9.57845 2 8.75 2C7.92155 2 7.25 2.59696 7.25 3.33333Z" stroke="black" stroke-width="2.7" stroke-linecap="round" stroke-linejoin="round"/>
</svg>
